<svg xmlns="http://www.w3.org/2000/svg" viewBox="0 0 24 24" fill="none">
  <path fill="#FF9900" d="M7.387 16.677c-.275.429-.721.552-1.335.552H4.747l-1.112 3.132H1.344L4.468 8.534h2.324l3.126 11.827H7.496l-.109-.297-1.112-3.163-.888.297zm-.275-1.382l-.339-1.052c-.341-1.044-.687-2.339-.984-3.422h-.056c-.293 1.082-.605 2.378-.933 3.422l-.326 1.052h2.638zM11.662 20.361h-2.096V8.534h2.096v11.827zm4.094.163c-1.845 0-3.693-.761-3.693-4.069v-4.05c0-3.308 1.848-4.069 3.693-4.069 1.849 0 3.693.761 3.693 4.069v4.05c0 3.308-1.844 4.069-3.693 4.069zm0-1.709c.934 0 1.598-.383 1.598-2.36v-4.05c0-1.976-.664-2.359-1.598-2.359-.93 0-1.598.383-1.598 2.359v4.05c0 1.977.668 2.36 1.598 2.36z"/>
</svg> 